<svg width="125" height="17" fill="none" xmlns="http://www.w3.org/2000/svg"><path d="M6.4.6a4.5 4.5 0 0 1 3.9 2.2c.4.7.6 1.4.6 2.3 0 1.2-.5 2.2-1.3 3-1 1-2 1.4-3.2 1.4H2.7v6.3H0V.6h6.4Zm0 6.3c.5 0 1-.2 1.3-.6.3-.3.5-.7.5-1.2 0-.6-.2-1-.5-1.3-.4-.4-.8-.6-1.3-.6H2.7V7h3.7ZM21.7.6h2.6v15.2h-2.6V9.5h-6.5v6.3h-2.7V.6h2.7V7h6.5V.6ZM29.8 1.6c1.2-.6 2.5-1 4-1a7.7 7.7 0 0 1 7.6 7.6c0 1.4-.3 2.6-1 3.8a7.6 7.6 0 0 1-6.7 3.8A7.7 7.7 0 0 1 26 8.2c0-1.4.3-2.6 1-3.8.7-1.2 1.7-2 2.8-2.8Zm.3 10a5 5 0 0 0 3.6 1.5 5 5 0 0 0 3.6-1.4c1-1 1.5-2.1 1.5-3.5s-.5-2.5-1.5-3.5a5 5 0 0 0-3.6-1.5 5 5 0 0 0-3.6 1.5c-1 1-1.4 2.1-1.4 3.5s.4 2.5 1.4 3.5ZM42 .6h10.9v2.6h-4.1v12.6H46V3.2H42V.6ZM57.3 1.6a7.7 7.7 0 0 1 11.6 6.6c0 1.4-.4 2.6-1 3.8a7.6 7.6 0 0 1-6.8 3.8 7.7 7.7 0 0 1-7.7-7.6c0-1.4.4-2.6 1-3.8.7-1.2 1.7-2 2.9-2.8Zm.3 10a5 5 0 0 0 3.5 1.5 5 5 0 0 0 3.6-1.4c1-1 1.5-2.1 1.5-3.5s-.5-2.5-1.5-3.5a5 5 0 0 0-3.6-1.5 5 5 0 0 0-3.5 1.5c-1 1-1.5 2.1-1.5 3.5s.5 2.5 1.5 3.5Z" fill="#262626"/><path d="M74.6.3A7.7 7.7 0 0 1 83 7.2a7.6 7.6 0 0 1-7 8.2l-4.6.4L70 .7l4.6-.4Zm1.1 12.5c1.4-.2 2.6-.7 3.5-1.8.9-1 1.2-2.2 1.1-3.6A4.7 4.7 0 0 0 78.6 4 5 5 0 0 0 74.9 3l-2 .2 1 9.8 1.8-.1ZM96 5.3c-.2.9-.5 1.6-1 2.3-.5.7-1.1 1.2-2 1.5l2 7-2.9-.3-1.7-6.5-3-.2-.6 6.2-2.7-.2L85.5 0l6.3.5c1.2.1 2.3.7 3 1.6.9 1 1.2 2 1.1 3.2Zm-4.7 1.5c.5 0 1-.1 1.3-.4.4-.4.6-.8.7-1.3 0-.5-.1-1-.5-1.3-.3-.4-.7-.6-1.2-.7l-3.7-.3-.3 3.7 3.6.3ZM100.7 12.4l-2.6 2.3 12.5.7-2.4-2.6-7.5-.4ZM100.3 4l-2.4-2.5-.7 12.2 2.6-2.3.5-7.3ZM108.7 3.6l2.7-2.2L98.9.7l2.3 2.5 7.5.4ZM109.6 4.6l-.4 7.3 2.3 2.6.7-12.2-2.6 2.3ZM119.9.2a4.6 4.6 0 0 1 4.2 1.7c.5.6.7 1.3.9 2.1.1 1.2-.2 2.3-1 3.3-.7 1-1.7 1.5-3 1.7l-3.6.4.8 6.3-2.6.3-2-15 6.3-.8Zm.8 6.2c.5 0 1-.3 1.2-.7.4-.4.5-.9.4-1.4 0-.5-.3-.9-.7-1.2-.4-.3-.9-.4-1.4-.3l-3.6.4.5 3.6 3.6-.4Z" fill="#30C"/></svg>