<svg width="100" height="40" fill="none" xmlns="http://www.w3.org/2000/svg"><path d="m30.16 17.17.05.14 6.19-2.54a2.78 2.78 0 0 0 1.5-3.6l-.1-.15-6.19 2.54a2.76 2.76 0 0 0-1.45 3.6ZM28.28 13.46l.14.14 4.74-4.74a2.75 2.75 0 0 0 0-3.89l-.14-.14-4.74 4.7a2.8 2.8 0 0 0 0 3.93ZM60.46 23.22H56.6v-1.83h3.76v-1.6H56.6V18.1h3.85v-1.59h-5.58v8.3h5.58v-1.6ZM60.32 12.1H56.8V5.4h-1.88v8.34h5.4V12.1ZM25.19 10.79l.14.04 2.58-6.19c.56-1.4-.1-3-1.5-3.6l-.14-.06-2.58 6.2c-.57 1.4.1 3 1.5 3.6ZM9.8 22.75l-.04-.19-6.2 2.53a2.78 2.78 0 0 0-1.5 3.61l.05.1 6.2-2.49a2.71 2.71 0 0 0 1.5-3.56ZM11.63 26.4l-.14-.13-4.74 4.78a2.75 2.75 0 0 0 0 3.9l.15.13 4.73-4.73a2.8 2.8 0 0 0 0-3.94ZM63.32 5.4h-1.88v8.34h1.88V5.4ZM9.57 11.63a2.75 2.75 0 0 0 3.9 0l.13-.14-4.74-4.74a2.75 2.75 0 0 0-3.89 0l-.14.15 4.74 4.73ZM9.47 18.67v-.19h-6.7A2.77 2.77 0 0 0 0 21.25v.19h6.7a2.77 2.77 0 0 0 2.77-2.77ZM8.26 16.42c.37 0 .7-.1 1.03-.2.65-.27 1.22-.79 1.5-1.5l.04-.13L4.64 12c-1.4-.57-3 .1-3.6 1.5v.1l6.18 2.57c.33.14.7.24 1.04.24ZM78.14 12.34h3.66l.52 1.4h2.01l-3.23-8.3V5.4h-2.3l-3.24 8.35h2.07l.51-1.4Zm1.83-5.21 1.32 3.61h-2.63l1.31-3.61ZM97.6 12.15h-4.07v-1.83h3.98v-1.6h-3.98V7.04h4.08V5.39h-5.96v8.35h5.96v-1.6ZM86.07 13.74h1.88v-6.7h2.43V5.39h-6.7v1.65h2.39v6.7ZM88.56 16.51l-3 8.3h1.87l.47-1.4h3.38l.47 1.4h1.87l-3-8.25v-.05h-2.06Zm2.2 5.3h-2.44l1.22-3.61 1.22 3.61ZM62.1 16.51v4.97c0 2.2 1.27 3.47 3.52 3.47 2.2 0 3.47-1.26 3.47-3.47v-4.97h-1.74v4.92c0 1.18-.6 1.88-1.73 1.88s-1.74-.66-1.74-1.88v-4.92H62.1ZM94.93 16.51v8.3h4.98v-1.64h-3.29v-6.66h-1.69ZM74.48 24.81v-6.66h2.26v-1.64H70.5v1.64h2.25v6.66h1.73ZM84.47 19.18v-.28a2.46 2.46 0 0 0-2.62-2.39h-3.66v8.3h1.73v-2.95h1.13l1.5 2.95h1.97l-1.73-3.14c.84-.23 1.68-.99 1.68-2.49Zm-2.9 1.08h-1.7v-2.15h1.7c.6 0 1.08.46 1.08 1.07 0 .61-.47 1.08-1.08 1.08ZM67.21 8.02l2.26 5.68v.04h.84l2.25-5.72v5.72h1.88V5.4h-2.58l-1.97 5.12-1.97-5.07h-2.58v8.3h1.87V8.02ZM14.73 29.08l-.14-.05-2.58 6.2c-.57 1.4.1 3 1.5 3.6l.14.05 2.58-6.19c.56-1.4-.1-3-1.5-3.61ZM61.35 35.27v-.14a1.36 1.36 0 0 0-1.45-1.27h-1.83v4.32h.89v-1.55h.51l.94 1.55h1.08l-1.08-1.64c.57-.14.94-.66.94-1.27Zm-1.55.56h-.84v-1.12h.94c.28.05.51.28.51.6a.65.65 0 0 1-.6.52ZM77.16 33.87v4.31h.89v-4.31h-.9ZM72.04 38.18h.9V36.4H75v-.8h-2.06v-.9h2.1v-.83h-3v4.31ZM11.16 1.97l-.14.05 2.54 6.19c.28.66.8 1.22 1.5 1.5a2.56 2.56 0 0 0 2.11 0l.18-.05-2.53-6.19a2.85 2.85 0 0 0-3.66-1.5ZM63.23 34.7h1.22v3.48h.93v-3.47h1.22v-.84h-3.37v.84ZM100 28.9H46.72v1.02H100V28.9ZM80.44 38.18h3v-.84h-2.06v-.94h2.02v-.8h-2.02v-.9h2.06v-.83h-3v4.31ZM52.81 38.18h3v-.84h-2.1v-.94h2.06v-.8H53.7v-.9h2.1v-.83h-3v4.31ZM87.29 33.87h-1.6v4.31h1.6c1.22 0 2.16-.98 2.16-2.16 0-1.17-.99-2.15-2.16-2.15Zm0 3.51h-.66v-2.67H87.48c.65.05 1.17.66 1.12 1.31v.14c-.04.7-.65 1.22-1.31 1.22ZM69.6 33.87h-.89v4.31h.9v-4.31ZM29.13 25.14l-.1.14 6.24 2.63c.33.14.7.19 1.03.19a2.7 2.7 0 0 0 2.54-1.7l.04-.13-6.19-2.58a2.7 2.7 0 0 0-3.56 1.45ZM30.35 28.24a2.75 2.75 0 0 0-3.9 0l-.14.14 4.74 4.73a2.75 2.75 0 0 0 3.9 0l.13-.14-4.73-4.73ZM26.36 31.61a2.73 2.73 0 0 0-3.56-1.5l-.2.05 2.5 6.2c.28.65.8 1.21 1.5 1.5.32.13.7.23 1.07.23.38 0 .7-.1 1.04-.24l.18-.04-2.53-6.2ZM18.67 0h-.19v6.7c0 1.5 1.22 2.73 2.77 2.73h.19V2.72c0-1.5-1.27-2.72-2.77-2.72ZM18.67 30.4h-.19v6.7a2.74 2.74 0 0 0 2.77 2.77h.19v-6.7a2.8 2.8 0 0 0-2.77-2.78ZM30.44 21.25v.14h6.7a2.77 2.77 0 0 0 2.78-2.77v-.14H33.2a2.77 2.77 0 0 0-2.77 2.77ZM49.86 13.93c1.5.05 2.86-.75 3.56-2.06l.05-.05-1.6-.75v.05a2.15 2.15 0 0 1-1.96 1.17h-.1a2.52 2.52 0 0 1-2.39-2.67v-.1c0-1.4 1.13-2.53 2.49-2.58.84 0 1.6.47 1.97 1.17v.05l1.6-.8v-.04a3.93 3.93 0 0 0-3.57-2.07h-.29a4.2 4.2 0 0 0-4.12 4.32v.28a4.23 4.23 0 0 0 4.36 4.08ZM47.7 19.42l3.61 5.4h1.64V16.5h-1.73v5.2l-3.47-5.2H46l-.04 8.3h1.73v-5.4ZM48.97 34.66c.37 0 .75.19.94.52l.09.14.8-.42-.1-.14a2 2 0 0 0-1.73-.94c-1.22 0-2.25.98-2.25 2.25s.98 2.25 2.25 2.25a2 2 0 0 0 1.73-.94l.1-.1-.8-.41-.1.14c-.18.33-.56.51-.93.51-.61-.09-1.13-.56-1.17-1.17a1.45 1.45 0 0 1 1.17-1.69Z" fill="#fff"/></svg>