<svg width="150" height="25" fill="none" xmlns="http://www.w3.org/2000/svg"><path d="M84.8 14.12c-3.1 0-5.22-2.38-5.22-5.62 0-3.28 2.18-5.73 5.22-5.73 3.05 0 5.23 2.43 5.23 5.73 0 3.24-2.18 5.62-5.23 5.62ZM84.8 0c-4.78 0-8.06 3.75-8.06 8.5 0 4.72 3.28 8.39 8.06 8.39 4.74 0 8.02-3.67 8.02-8.4C92.82 3.76 89.54 0 84.8 0Zm12.78.34h-2.82v16.2h11.03v-2.77h-8.24V.34h.03ZM64.3 16.54h11.11v-2.77h-8.3V9.66h7.38v-2.8h-7.37V3.11h8.29V.34H64.3v16.2ZM146.8.37v6.28c0 2.06-1.05 3.3-2.61 3.3-1.48 0-2.23-.93-2.23-2.7V.38h-3.17l.05 7.5c0 3.05 1.59 4.98 4.33 4.98 1.58 0 2.81-.63 3.66-1.64v2.43c0 2.2-1.26 3.56-3.1 3.56-1.4 0-2.46-.79-2.64-2.3l-3.02.43c.16 2.93 2.51 4.75 5.66 4.75 3.76 0 6.27-2.77 6.27-6.57V.37h-3.2ZM132.13 19.5c0 1.1-.87 1.98-1.92 1.98-1.53 0-2.22-1.1-2.22-2.2 0-.91.48-1.81 1.35-2.5a6.57 6.57 0 0 1 2.82-1.21v3.93h-.03Zm-1-10.98c-.58.61-1.33.9-2.22.9-.9 0-1.64-.29-2.23-.9a3.28 3.28 0 0 1-.87-2.35c0-.95.28-1.74.87-2.34a2.89 2.89 0 0 1 2.23-.93c.9 0 1.64.3 2.22.93.62.6.9 1.4.9 2.34 0 .93-.28 1.72-.9 2.35Zm3.8.74V.36h-2.9v1.38a4.35 4.35 0 0 0-3.66-1.69c-1.51 0-2.79.61-3.87 1.8a6.29 6.29 0 0 0-1.58 4.32c0 1.72.54 3.17 1.58 4.36a5.01 5.01 0 0 0 3.87 1.77c1.56 0 2.76-.53 3.76-1.8v2.17a9.52 9.52 0 0 0-4.53 1.87 6.22 6.22 0 0 0-2.43 4.8c0 2.9 2.15 5.07 5.02 5.07a4.82 4.82 0 0 0 4.73-4.88v-4.2h1.54v-2.9h-1.54V9.26Zm-21.13 4.86c-3.1 0-5.22-2.38-5.22-5.62 0-3.28 2.18-5.73 5.23-5.73 3.04 0 5.22 2.43 5.22 5.73 0 3.24-2.18 5.62-5.22 5.62ZM113.84 0c-4.79 0-8.06 3.75-8.06 8.5 0 4.72 3.27 8.39 8.06 8.39 4.74 0 8.01-3.67 8.01-8.4 0-4.74-3.27-8.49-8-8.49ZM0 16.54h2.82v-6.4h7.32V7.35H2.82V3.14h8.24V.34H0v16.2Zm53.3-5.77a.94.94 0 0 1-.85.42.94.94 0 0 1-.85-.42c-.25-.4-.4-1-.4-1.72 0-1.66.5-2.98 1.22-3.98.75 1 1.23 2.32 1.23 3.98.03.71-.1 1.35-.36 1.72ZM56.25.03c-1.48 0-2.74.42-3.81 1.13A6.8 6.8 0 0 0 48.63.03a5.78 5.78 0 0 0-5.68 5.85v10.66h2.82V5.88c0-1.63 1.3-2.98 2.89-2.98.51 0 1.1.13 1.66.4a10.5 10.5 0 0 0-1.86 5.75c0 1.32.3 2.48.9 3.38a3.66 3.66 0 0 0 3.14 1.66c1.3 0 2.4-.6 3.15-1.66a6 6 0 0 0 .9-3.38c0-1.82-.65-4.01-1.87-5.75.56-.27 1.12-.4 1.66-.4 1.59 0 2.9 1.35 2.9 2.98v10.66h2.8V5.88A5.93 5.93 0 0 0 56.27.03ZM31.74 9.68l2.3-5.9 2.3 5.9h-4.6Zm.64-9.34-6.37 16.2h3.04l1.59-4.06h6.78l1.59 4.06h3.07L35.68.34h-3.3Zm-12.47 7.2h-4.07V3.12h4.07c1.49 0 2.39.85 2.39 2.2 0 1.42-.93 2.24-2.39 2.24Zm5.18-2.21c0-2.9-1.95-4.96-5.02-4.96h-7.04v16.2h2.81v-6.25h3.51l2.82 6.25h3.04l-3.07-6.62c1.84-.71 2.95-2.43 2.95-4.62Z" fill="#fff"/></svg>