<svg width="82" height="75" fill="none" xmlns="http://www.w3.org/2000/svg"><path d="M64.68 9.7 5.4 10a5.35 5.35 0 0 0-3.84 1.63A5.53 5.53 0 0 0 0 15.51L.22 58.6a5.5 5.5 0 0 0 3.4 5.01c.66.27 1.36.4 2.08.4l21.58-.11c2.2 3.03 5.72 7.8 7.67 10.49a1.48 1.48 0 0 0 1.29.62 1.54 1.54 0 0 0 1.22-.75l5.99-10.44 21.52-.12a5.3 5.3 0 0 0 3.84-1.62 5.53 5.53 0 0 0 1.58-3.87l-.2-43.09a5.39 5.39 0 0 0-3.42-5.03 5.59 5.59 0 0 0-2.11-.39h.02Z" fill="#30C"/><path d="M29.9 46.25a8 8 0 0 1-1.89 6.14 7.34 7.34 0 0 0 6.47-5.74s14.02 1.68 15.69-7.8C51.94 28.86 41.69 26 37.32 26c-7.64 0-13.92 4.16-14.26 11.33-.34 7.16 6.84 8.93 6.84 8.93Z" fill="#fff"/><path d="M81.8 12.66a12.7 12.7 0 0 1-15.16 12.6 12.75 12.75 0 1 1 15.16-12.6Z" fill="#FE5F55"/></svg>