<svg width="66" height="28" fill="none" xmlns="http://www.w3.org/2000/svg"><path d="M12.06 3.6c-.77.92-2.01 1.65-3.25 1.55a4.66 4.66 0 0 1 1.16-3.4A4.83 4.83 0 0 1 13.2.08a4.97 4.97 0 0 1-1.13 3.52Zm1.12 1.8C11.38 5.3 9.85 6.41 9 6.41c-.86 0-2.16-.97-3.58-.95a5.29 5.29 0 0 0-4.5 2.76C-1 11.59.42 16.55 2.3 19.29c.91 1.35 2 2.83 3.45 2.78 1.37-.05 1.91-.9 3.56-.9 1.66 0 2.14.9 3.58.87 1.5-.02 2.44-1.35 3.36-2.7 1.04-1.54 1.47-3.03 1.5-3.11-.03-.03-2.9-1.13-2.92-4.46-.03-2.79 2.25-4.11 2.36-4.19a5.1 5.1 0 0 0-4-2.19Zm10.35-3.78V21.9h3.12v-6.93h4.32c3.95 0 6.72-2.73 6.72-6.69 0-3.95-2.72-6.66-6.61-6.66h-7.55Zm3.12 2.66h3.6c2.7 0 4.25 1.45 4.25 4.02 0 2.56-1.54 4.03-4.26 4.03h-3.59V4.28ZM43.4 22.06c1.96 0 3.77-1 4.6-2.6h.06v2.44h2.9V11.8c0-2.92-2.33-4.8-5.9-4.8-3.31 0-5.76 1.9-5.85 4.53H42c.24-1.24 1.39-2.06 2.96-2.06 1.9 0 2.98.9 2.98 2.55v1.11l-3.9.24c-3.62.22-5.58 1.72-5.58 4.32 0 2.62 2.03 4.37 4.93 4.37Zm.84-2.4c-1.67 0-2.72-.82-2.72-2.05 0-1.28 1.01-2.02 2.96-2.13l3.47-.23v1.15c0 1.9-1.6 3.25-3.71 3.25Zm10.57 7.76c3.04 0 4.47-1.18 5.72-4.73L66 7.2h-3.17l-3.68 11.98h-.06L55.42 7.19h-3.27l5.29 14.76-.28.9c-.48 1.52-1.25 2.1-2.63 2.1-.25 0-.73-.02-.92-.04v2.43c.18.05.95.08 1.19.08Z" fill="#fff"/></svg>