<svg width="116" height="29" fill="none" xmlns="http://www.w3.org/2000/svg"><path d="M43.37 6.39h-6.41a.89.89 0 0 0-.89.76l-2.6 16.6a.55.55 0 0 0 .31.58c.07.03.15.05.23.05h3.06a.89.89 0 0 0 .88-.76l.7-4.48a.9.9 0 0 1 .88-.76h2.04c4.22 0 6.67-2.06 7.3-6.16.29-1.79.01-3.2-.82-4.18-.9-1.08-2.53-1.65-4.68-1.65Zm.75 6.07c-.36 2.32-2.12 2.32-3.82 2.32h-.97l.68-4.34a.54.54 0 0 1 .53-.46H41c1.16 0 2.25 0 2.81.67.34.4.44.99.32 1.8Zm18.44-.08H59.5a.53.53 0 0 0-.53.46l-.14.86-.21-.31c-.67-.98-2.15-1.3-3.63-1.3-3.4 0-6.3 2.6-6.86 6.24a5.9 5.9 0 0 0 1.14 4.76c.94 1.11 2.28 1.58 3.87 1.58 2.74 0 4.26-1.78 4.26-1.78l-.14.86a.54.54 0 0 0 .3.58c.07.03.15.05.23.05h2.77a.89.89 0 0 0 .88-.76L63.09 13a.54.54 0 0 0-.3-.57.53.53 0 0 0-.23-.05Zm-4.28 6.04a3.43 3.43 0 0 1-3.47 2.96c-.9 0-1.6-.3-2.06-.84a2.65 2.65 0 0 1-.49-2.18 3.45 3.45 0 0 1 3.45-2.98c.87 0 1.58.29 2.05.84.47.56.65 1.34.52 2.2Zm20.65-6.04h-3.08a.89.89 0 0 0-.74.4l-4.26 6.33-1.8-6.09a.9.9 0 0 0-.87-.64h-3.03a.53.53 0 0 0-.53.46c-.01.09 0 .17.02.25l3.4 10.08-3.2 4.55a.54.54 0 0 0 .44.86h3.09a.88.88 0 0 0 .73-.39l10.27-14.96a.54.54 0 0 0-.16-.77.53.53 0 0 0-.28-.08Z" fill="#253B80"/><path d="M89.16 6.4h-6.42a.89.89 0 0 0-.88.75l-2.6 16.6a.54.54 0 0 0 .3.58c.08.03.15.05.23.05h3.3a.62.62 0 0 0 .61-.53l.74-4.7a.9.9 0 0 1 .88-.77h2.03c4.23 0 6.67-2.06 7.3-6.15.3-1.8.02-3.2-.81-4.19-.91-1.08-2.53-1.65-4.68-1.65Zm.74 6.06c-.35 2.32-2.1 2.32-3.81 2.32h-.97l.68-4.34a.54.54 0 0 1 .53-.46h.44c1.16 0 2.26 0 2.82.67.34.4.44.99.31 1.8Zm18.45-.08h-3.07a.53.53 0 0 0-.53.46l-.14.86-.21-.31c-.67-.97-2.15-1.3-3.63-1.3-3.4 0-6.3 2.6-6.86 6.24a5.9 5.9 0 0 0 1.14 4.76c.94 1.11 2.28 1.58 3.87 1.58 2.74 0 4.26-1.78 4.26-1.78l-.14.86a.53.53 0 0 0 .12.44.54.54 0 0 0 .4.19h2.78a.9.9 0 0 0 .88-.76L108.88 13a.54.54 0 0 0-.3-.57.54.54 0 0 0-.23-.05Zm-4.29 6.04a3.43 3.43 0 0 1-3.47 2.96c-.89 0-1.6-.29-2.06-.84a2.66 2.66 0 0 1-.48-2.18 3.45 3.45 0 0 1 3.44-2.98c.88 0 1.59.3 2.05.84.47.56.66 1.34.52 2.2Zm7.91-11.57-2.63 16.9a.54.54 0 0 0 .12.44.54.54 0 0 0 .4.2h2.65a.9.9 0 0 0 .88-.77l2.6-16.6a.54.54 0 0 0-.3-.58.53.53 0 0 0-.22-.05h-2.97a.53.53 0 0 0-.53.46Z" fill="#179BD7"/><path d="m6.82 27.6.5-3.14-1.1-.02H1L4.62 1.22a.3.3 0 0 1 .3-.25h8.8c2.93 0 4.94.61 6 1.83.49.56.8 1.16.96 1.81.16.69.16 1.5 0 2.5v.72l.49.28c.37.2.71.45 1 .77.42.48.7 1.1.8 1.83.13.76.09 1.65-.1 2.67a9.43 9.43 0 0 1-1.1 3.01 6.18 6.18 0 0 1-4.01 2.95c-.85.22-1.82.33-2.88.33h-.69a2.07 2.07 0 0 0-2.04 1.76l-.05.28-.87 5.54-.04.2c0 .07-.02.1-.05.13a.14.14 0 0 1-.09.03H6.82Z" fill="#253B80"/><path d="m21.63 7.26-.09.52c-1.16 6.02-5.13 8.1-10.2 8.1H8.75c-.62 0-1.14.45-1.24 1.06L6.2 25.41l-.37 2.4a.67.67 0 0 0 .37.7c.09.05.18.07.28.07h4.58c.54 0 1-.4 1.09-.94l.04-.24.87-5.52.05-.3a1.1 1.1 0 0 1 1.1-.94h.68c4.44 0 7.91-1.82 8.93-7.08.42-2.2.2-4.03-.92-5.32-.36-.4-.78-.73-1.26-.98Z" fill="#179BD7"/><path d="M20.42 6.77a9.1 9.1 0 0 0-1.13-.25c-.75-.12-1.52-.17-2.28-.17h-6.9a1.1 1.1 0 0 0-1.09.94l-1.46 9.38-.05.28a1.27 1.27 0 0 1 1.24-1.08h2.59c5.07 0 9.04-2.08 10.2-8.09l.1-.52a6.16 6.16 0 0 0-1.22-.49Z" fill="#222D65"/><path d="M9.02 7.3a1.11 1.11 0 0 1 1.1-.95h6.9c.81 0 1.57.06 2.27.17.47.07.94.19 1.39.33.34.12.66.25.95.41.35-2.22 0-3.74-1.19-5.1C19.13.64 16.76 0 13.72 0h-8.8C4.3 0 3.77.45 3.68 1.07L0 24.52a.77.77 0 0 0 .43.82c.1.04.2.07.32.07h5.43l1.37-8.74L9.02 7.3Z" fill="#253B80"/></svg>