<svg width="37" height="37" fill="none" xmlns="http://www.w3.org/2000/svg"><path d="M36 18.25a17.5 17.5 0 1 1-35 0 17.5 17.5 0 0 1 35 0Z" fill="#30C"/><path fill-rule="evenodd" clip-rule="evenodd" d="M18.5 1.5a16.75 16.75 0 1 0 0 33.5 16.75 16.75 0 0 0 0-33.5ZM.25 18.25a18.25 18.25 0 1 1 36.5 0 18.25 18.25 0 0 1-36.5 0Z" fill="#fff"/><g clip-path="url(#a)"><path d="m11.14 23.46.9 5.46 5.16-1.96 9.36-16.21-6.06-3.5-9.36 16.21Zm9.89-14.32 3.64 2.1-2.06 3.56-3.64-2.1 2.06-3.56Zm-2.74 4.74 3.64 2.1-5.7 9.87-3.1 1.17-.53-3.27 5.7-9.87h-.01Z" fill="#fff"/></g><defs><clipPath id="a"><path fill="#fff" transform="rotate(30 -3.28 41.88)" d="M0 0h7v23H0z"/></clipPath></defs></svg>